<!DOCTYPE svg PUBLIC "-//W3C//DTD SVG 1.1//EN" "http://www.w3.org/Graphics/SVG/1.1/DTD/svg11.dtd">

<!-- Uploaded to: SVG Repo, www.svgrepo.com, Transformed by: SVG Repo Mixer Tools -->
<svg width="24px" height="24px" viewBox="0 0 24 24" fill="none" xmlns="http://www.w3.org/2000/svg">

<g id="SVGRepo_bgCarrier" stroke-width="0"/>

<g id="SVGRepo_tracerCarrier" stroke-linecap="round" stroke-linejoin="round"/>

<g id="SVGRepo_iconCarrier">

<path fill-rule="evenodd" clip-rule="evenodd" d="M3 14a1 1 0 0 1 1-1h12a3 3 0 0 0 3-3V6a1 1 0 1 1 2 0v4a5 5 0 0 1-5 5H4a1 1 0 0 1-1-1z" fill="#ffffff"/>

<path fill-rule="evenodd" clip-rule="evenodd" d="M3.293 14.707a1 1 0 0 1 0-1.414l4-4a1 1 0 0 1 1.414 1.414L5.414 14l3.293 3.293a1 1 0 1 1-1.414 1.414l-4-4z" fill="#ffffff"/>

</g>

</svg>